<svg id="Layer_1" data-name="Layer 1" 
    xmlns="http://www.w3.org/2000/svg" viewBox="0 0 461.4 508.38">
    <defs>
        <style>.cls-1{fill:#1483c1;}.cls-2{fill:#848484;}.cls-3{fill:#3d3d3d;}</style>
    </defs>
    <title>Portieris_Logo</title>
    <path class="cls-1" d="M99,325.76a132.62,132.62,0,0,0,265.24,0V196.68H321.8V325.76a90.18,90.18,0,0,1-180.35,0V196.68H99Z"/>
    <rect x="227.09" y="94.26" width="9.06" height="177.16" rx="2.21" ry="2.21"/>
    <rect x="257.74" y="100.48" width="9.06" height="170.94" rx="2.21" ry="2.21"/>
    <rect x="288.38" y="122.79" width="9.06" height="148.62" rx="2.21" ry="2.21"/>
    <rect x="165.65" y="122.79" width="9.06" height="148.62" rx="2.21" ry="2.21"/>
    <rect x="196.3" y="100.48" width="9.06" height="170.94" rx="2.21" ry="2.21"/>
    <rect x="145.69" y="231.32" width="171.55" height="8.46" rx="2.21" ry="2.21"/>
    <path class="cls-2" d="M364.09,205.37a132.62,132.62,0,1,0-265.24,0V334.45H141.3V205.37a90.17,90.17,0,1,1,180.34,0V334.45h42.45Z"/>
    <path class="cls-3" d="M243.52,116.68a5,5,0,0,1-4.79,4.16H224.18a5,5,0,0,1-4.79-4.16l-8.71-62.51A3.57,3.57,0,0,1,214.31,50h34.32a3.58,3.58,0,0,1,3.63,4.17Z"/>
    <path class="cls-3" d="M268,122.18a5.34,5.34,0,0,1-6.19,2.58l-8.6-2.78a5.32,5.32,0,0,1-3.49-5.72L256.38,75a3.67,3.67,0,0,1,4.9-3l23.24,7.52a3.69,3.69,0,0,1,2.22,5.31Z"/>
    <path class="cls-3" d="M291.34,137.39a5.33,5.33,0,0,1-6.69.55l-7.32-5.29a5.32,5.32,0,0,1-1.56-6.52L294.82,89a3.68,3.68,0,0,1,5.59-1.34l19.79,14.31a3.68,3.68,0,0,1,.48,5.73Z"/>
    <path class="cls-3" d="M308.88,159.06a5.33,5.33,0,0,1-6.53-1.53l-5.34-7.3a5.33,5.33,0,0,1,.52-6.68l29.57-29.49a3.69,3.69,0,0,1,5.74.44l14.42,19.71a3.69,3.69,0,0,1-1.31,5.6Z"/>
    <path class="cls-3" d="M318.89,185.07a5.33,5.33,0,0,1-5.74-3.46L310.32,173a5.33,5.33,0,0,1,2.55-6.2l37.22-19a3.68,3.68,0,0,1,5.32,2.19l7.65,23.19a3.69,3.69,0,0,1-3,4.93Z"/>
    <path class="cls-3" d="M320.41,212.91a5.34,5.34,0,0,1-4.4-5.07l-.05-9a5.35,5.35,0,0,1,4.34-5.12l41.25-6.57a3.68,3.68,0,0,1,4.38,3.73l.14,24.42a3.69,3.69,0,0,1-4.35,3.77Z"/>
    <path class="cls-3" d="M194.35,122.18a5.33,5.33,0,0,0,6.19,2.58l8.59-2.78a5.32,5.32,0,0,0,3.5-5.72L206,75A3.68,3.68,0,0,0,201,72l-23.23,7.52a3.69,3.69,0,0,0-2.22,5.31Z"/>
    <path class="cls-3" d="M171,137.39a5.32,5.32,0,0,0,6.68.55l7.33-5.29a5.34,5.34,0,0,0,1.56-6.52L167.51,89a3.68,3.68,0,0,0-5.59-1.34l-19.79,14.31a3.68,3.68,0,0,0-.48,5.73Z"/>
    <path class="cls-3" d="M153.45,159.06a5.33,5.33,0,0,0,6.53-1.53l5.34-7.3a5.33,5.33,0,0,0-.52-6.68l-29.57-29.49a3.68,3.68,0,0,0-5.74.44l-14.42,19.71a3.69,3.69,0,0,0,1.31,5.6Z"/>
    <path class="cls-3" d="M143.44,185.07a5.34,5.34,0,0,0,5.74-3.46L152,173a5.33,5.33,0,0,0-2.55-6.2l-37.22-19a3.68,3.68,0,0,0-5.32,2.19l-7.65,23.19a3.69,3.69,0,0,0,3,4.93Z"/>
    <path class="cls-3" d="M141.92,212.91a5.34,5.34,0,0,0,4.4-5.07l.05-9a5.35,5.35,0,0,0-4.34-5.12l-41.25-6.57a3.68,3.68,0,0,0-4.38,3.73l-.14,24.42a3.69,3.69,0,0,0,4.35,3.77Z"/>
    <path class="cls-3" d="M141.92,279.66a5.34,5.34,0,0,0,4.4-5.07l.05-9a5.33,5.33,0,0,0-4.34-5.11l-41.25-6.57a3.67,3.67,0,0,0-4.38,3.72L96.26,282a3.69,3.69,0,0,0,4.35,3.77Z"/>
    <path class="cls-3" d="M141.92,344.73a5.34,5.34,0,0,0,4.4-5.07l.05-9a5.33,5.33,0,0,0-4.34-5.11L100.78,319a3.67,3.67,0,0,0-4.38,3.72l-.14,24.42a3.69,3.69,0,0,0,4.35,3.77Z"/>
    <path class="cls-3" d="M100.7,246.79a5.32,5.32,0,0,1-4.39-5.06l0-9a5.33,5.33,0,0,1,4.34-5.11L141.84,221a3.68,3.68,0,0,1,4.39,3.72l.14,24.42a3.69,3.69,0,0,1-4.35,3.77Z"/>
    <path class="cls-3" d="M100.7,313A5.32,5.32,0,0,1,96.31,308l0-9a5.35,5.35,0,0,1,4.34-5.12l41.24-6.57a3.68,3.68,0,0,1,4.39,3.72l.14,24.42a3.69,3.69,0,0,1-4.35,3.77Z"/>
    <path class="cls-3" d="M320.41,279.66a5.34,5.34,0,0,1-4.4-5.07l-.05-9a5.33,5.33,0,0,1,4.34-5.11l41.25-6.57a3.67,3.67,0,0,1,4.38,3.72l.14,24.42a3.69,3.69,0,0,1-4.35,3.77Z"/>
    <path class="cls-3" d="M320.41,344.73a5.34,5.34,0,0,1-4.4-5.07l-.05-9a5.33,5.33,0,0,1,4.34-5.11L361.55,319a3.67,3.67,0,0,1,4.38,3.72l.14,24.42a3.69,3.69,0,0,1-4.35,3.77Z"/>
    <path class="cls-3" d="M361.62,246.79a5.32,5.32,0,0,0,4.4-5.06l.05-9a5.33,5.33,0,0,0-4.34-5.11L320.48,221a3.68,3.68,0,0,0-4.38,3.72L316,249.15a3.68,3.68,0,0,0,4.35,3.77Z"/>
    <path class="cls-3" d="M361.62,313A5.32,5.32,0,0,0,366,308l.05-9a5.35,5.35,0,0,0-4.34-5.12l-41.25-6.57A3.68,3.68,0,0,0,316.1,291L316,315.39a3.68,3.68,0,0,0,4.35,3.77Z"/>
    <path d="M175.52,278.24a1.06,1.06,0,0,1-1,.87h-8.64a1.08,1.08,0,0,1-1-.87l-2.21-13.65a.72.72,0,0,1,.74-.87H177a.72.72,0,0,1,.74.87Z"/>
    <path d="M206.32,278.24a1.08,1.08,0,0,1-1,.87h-8.64a1.06,1.06,0,0,1-1-.87l-2.22-13.65a.73.73,0,0,1,.75-.87h13.62a.72.72,0,0,1,.74.87Z"/>
    <path d="M236.81,278.24a1.08,1.08,0,0,1-1,.87h-8.64a1.06,1.06,0,0,1-1-.87l-2.22-13.65a.73.73,0,0,1,.75-.87h13.62a.72.72,0,0,1,.74.87Z"/>
    <path d="M267.61,278.24a1.08,1.08,0,0,1-1,.87H258a1.08,1.08,0,0,1-1-.87l-2.21-13.65a.73.73,0,0,1,.74-.87h13.63a.73.73,0,0,1,.74.87Z"/>
    <path d="M298.25,278.24a1.08,1.08,0,0,1-1,.87h-8.64a1.07,1.07,0,0,1-1-.87l-2.21-13.65a.72.72,0,0,1,.74-.87h13.62a.72.72,0,0,1,.74.87Z"/>
</svg>