<svg id="Layer_1" data-name="Layer 1" 
    xmlns="http://www.w3.org/2000/svg" viewBox="0 0 1193.43 496.71">
    <defs>
        <style>.cls-1{fill:#3d3d3d;}.cls-2{fill:none;}</style>
    </defs>
    <title>Portieris_Logo</title>
    <path class="cls-1" d="M231,193.24q17.6,0,27.79,9.57T269,228.59q0,16.36-10.19,25.86T231.13,264H205.35v39.52H181.11V193.24Zm-6.33,51.87q10.48,0,15.67-3.86t5.17-12.66q0-8.49-5-12.5t-15.67-4H205.35v33Z"/>
    <path class="cls-1" d="M334.57,190.61q24.39,0,39.29,16.22t14.9,42q0,25.17-15,41.22T334.57,306.1q-24.4,0-39.29-16.06t-14.9-41.22q0-25.62,15-41.92T334.57,190.61Zm-29.95,58.21q0,16.67,7.87,26.78t22.08,10.12q13.89,0,21.92-10t8-26.94q0-17.76-7.95-27.79t-22.16-10q-13.89,0-21.84,10T304.62,248.82Z"/>
    <path class="cls-1" d="M464.72,193.24q13.89,0,23.08,8.57T497,223.65q0,20.7-17.45,27.64v.31a18.35,18.35,0,0,1,9.19,5.63,27,27,0,0,1,5,9.19q1.69,5.25,2.16,16.83.62,15.13,4.33,20.22H476q-2-5.1-3.09-19.14-1.23-14.82-5.4-19.38t-13.59-4.55H429.52v43.07H405.28V193.24Zm-8.49,49.87q7.71,0,12.12-3.48t4.4-12.27q0-8.34-4.33-11.81t-12.35-3.48H429.52v31Z"/>
    <path class="cls-1" d="M599.65,193.24v20.38h-33v89.85H542.37V213.62h-33V193.24Z"/>
    <path class="cls-1" d="M644.42,193.24V303.47H620.18V193.24Z"/>
    <path class="cls-1" d="M748.17,193.24v20.38H690v23.62h53.42v18.83H690v27h59.44v20.38H665.73V193.24Z"/>
    <path class="cls-1" d="M826.44,193.24q13.9,0,23.09,8.57t9.18,21.84q0,20.7-17.44,27.64v.31a18.27,18.27,0,0,1,9.18,5.63,26.86,26.86,0,0,1,5,9.19q1.69,5.25,2.16,16.83.61,15.13,4.33,20.22H837.71q-2-5.1-3.08-19.14-1.25-14.82-5.41-19.38t-13.58-4.55h-24.4v43.07H767V193.24ZM818,243.11q7.72,0,12.12-3.48t4.4-12.27q0-8.34-4.32-11.81t-12.35-3.48H791.24v31Z"/>
    <path class="cls-1" d="M901.32,193.24V303.47H877.09V193.24Z"/>
    <path class="cls-1" d="M964.47,190.61q20.22,0,32.19,9.27t12,26.24H985.16q-.46-8.33-5.64-12.5t-16-4.17q-7.56,0-12.2,3.32a10.7,10.7,0,0,0-4.63,9.19q0,4.78,2.86,6.94a27.32,27.32,0,0,0,8.1,3.86q5.25,1.71,18.38,4.94,13.74,3.41,21.15,7.41a29.27,29.27,0,0,1,11.27,10.27q3.85,6.25,3.86,15.36a32.49,32.49,0,0,1-5.56,18.68q-5.57,8.19-16.21,12.43a64.61,64.61,0,0,1-24.09,4.25q-20.54,0-33.73-10.27t-13.2-28.18v-.77H943q0,9.74,6.64,15.05t17.6,5.33q9.72,0,15.67-3.47a11.2,11.2,0,0,0,5.94-10.27,10,10,0,0,0-3.24-7.56,24.17,24.17,0,0,0-8.65-5,180.75,180.75,0,0,0-18.22-4.87q-14.82-3.7-21.61-7.87a30.05,30.05,0,0,1-10.35-10.11,27.4,27.4,0,0,1-3.55-14.28,28.74,28.74,0,0,1,6-18.07,35.16,35.16,0,0,1,15.51-11.42A54.35,54.35,0,0,1,964.47,190.61Z"/>
    <rect class="cls-2" width="1193.43" height="496.71"/>
</svg>