<svg id="Layer_1" data-name="Layer 1" 
    xmlns="http://www.w3.org/2000/svg" viewBox="0 0 1204.7 491.38">
    <defs>
        <style>.cls-1{fill:#3d3d3d;}.cls-2{fill:#1483c1;}.cls-3{fill:#848484;}</style>
    </defs>
    <title>Portieris_Logo</title>
    <path class="cls-1" d="M197.87,187.42q18,0,28.37,9.78t10.4,26.31q0,16.71-10.4,26.4T198,259.59H171.72v40.34H147V187.42Zm-6.46,53q10.72,0,16-3.94t5.28-12.92q0-8.67-5.13-12.76t-16-4.1H171.72v33.72Z"/>
    <path class="cls-1" d="M498.67,187.42q14.19,0,23.56,8.75t9.38,22.3q0,21.12-17.81,28.2V247a18.71,18.71,0,0,1,9.38,5.75,27.6,27.6,0,0,1,5.12,9.38q1.73,5.36,2.2,17.17.63,15.45,4.42,20.64H510.18q-2.06-5.19-3.15-19.54-1.27-15.12-5.52-19.77T487.65,256h-24.9v44H438V187.42ZM490,238.32q7.88,0,12.37-3.54t4.49-12.53q0-8.5-4.41-12.06t-12.61-3.54h-27.1v31.67Z"/>
    <path class="cls-1" d="M636.39,187.42v20.8H602.67v91.71H577.93V208.22H544.21v-20.8Z"/>
    <path class="cls-1" d="M682.09,187.42V299.93H657.35V187.42Z"/>
    <path class="cls-1" d="M788,187.42v20.8h-59.4v24.11h54.52v19.23H728.57v27.57h60.66v20.8h-85.4V187.42Z"/>
    <path class="cls-1" d="M867.86,187.42q14.19,0,23.56,8.75t9.38,22.3q0,21.12-17.81,28.2V247a18.71,18.71,0,0,1,9.38,5.75,27.77,27.77,0,0,1,5.12,9.38q1.72,5.36,2.2,17.17.63,15.45,4.42,20.64H879.36q-2-5.19-3.14-19.54-1.28-15.12-5.52-19.77T856.83,256H831.94v44H807.2V187.42Zm-8.66,50.9q7.88,0,12.37-3.54t4.49-12.53q0-8.5-4.42-12.06T859,206.65h-27.1v31.67Z"/>
    <path class="cls-1" d="M944.28,187.42V299.93H919.55V187.42Z"/>
    <path class="cls-1" d="M1008.73,184.75q20.64,0,32.86,9.45T1053.8,221h-24q-.48-8.51-5.76-12.77t-16.3-4.25q-7.72,0-12.45,3.39a10.9,10.9,0,0,0-4.73,9.37q0,4.89,2.92,7.1a28,28,0,0,0,8.27,3.93q5.36,1.74,18.75,5.05,14,3.47,21.59,7.56a29.78,29.78,0,0,1,11.5,10.48q3.94,6.38,3.94,15.68a33.17,33.17,0,0,1-5.67,19.07q-5.67,8.34-16.55,12.68a65.91,65.91,0,0,1-24.58,4.33q-21,0-34.43-10.48t-13.47-28.75v-.79h24q0,9.93,6.78,15.36t18,5.44q9.93,0,16-3.55a11.42,11.42,0,0,0,6.07-10.48,10.28,10.28,0,0,0-3.31-7.72,24.76,24.76,0,0,0-8.83-5.12,186.85,186.85,0,0,0-18.59-5q-15.12-3.78-22.06-8a30.56,30.56,0,0,1-10.56-10.32,28,28,0,0,1-3.62-14.57,29.33,29.33,0,0,1,6.07-18.44,35.86,35.86,0,0,1,15.83-11.66A55.47,55.47,0,0,1,1008.73,184.75Z"/>
    <path class="cls-2" d="M257.84,290.74a78.86,78.86,0,0,0,157.71,0V214H390.31v76.74a53.62,53.62,0,0,1-107.23,0V214H257.84Z"/>
    <rect x="334" y="153.1" width="5.38" height="105.33" rx="1.31" ry="1.31"/>
    <rect x="352.22" y="156.8" width="5.38" height="101.63" rx="1.31" ry="1.31"/>
    <rect x="370.44" y="170.07" width="5.38" height="88.36" rx="1.31" ry="1.31"/>
    <rect x="297.47" y="170.07" width="5.38" height="88.36" rx="1.31" ry="1.31"/>
    <rect x="315.69" y="156.8" width="5.38" height="101.63" rx="1.31" ry="1.31"/>
    <rect x="285.61" y="234.6" width="102" height="5.03" rx="1.31" ry="1.31"/>
    <path class="cls-3" d="M415.46,219.16a78.86,78.86,0,0,0-157.71,0v76.75H283V219.16a53.62,53.62,0,0,1,107.23,0v76.75h25.24Z"/>
    <path class="cls-1" d="M343.77,166.43a3,3,0,0,1-2.85,2.48h-8.65a3,3,0,0,1-2.84-2.48l-5.19-37.16a2.12,2.12,0,0,1,2.16-2.48h20.41a2.12,2.12,0,0,1,2.15,2.48Z"/>
    <path class="cls-1" d="M358.31,169.7a3.18,3.18,0,0,1-3.68,1.54l-5.11-1.66a3.17,3.17,0,0,1-2.08-3.4l4-24.51a2.19,2.19,0,0,1,2.92-1.78l13.82,4.47a2.19,2.19,0,0,1,1.32,3.15Z"/>
    <path class="cls-1" d="M372.2,178.75a3.18,3.18,0,0,1-4,.33l-4.36-3.15a3.17,3.17,0,0,1-.93-3.88L374.27,150a2.2,2.2,0,0,1,3.33-.8l11.76,8.51a2.19,2.19,0,0,1,.28,3.41Z"/>
    <path class="cls-1" d="M382.63,191.63a3.18,3.18,0,0,1-3.88-.91l-3.18-4.34a3.17,3.17,0,0,1,.31-4l17.58-17.54a2.19,2.19,0,0,1,3.41.27l8.58,11.72a2.19,2.19,0,0,1-.78,3.33Z"/>
    <path class="cls-1" d="M388.58,207.1a3.17,3.17,0,0,1-3.41-2.07l-1.68-5.1a3.15,3.15,0,0,1,1.51-3.68L407.13,185a2.18,2.18,0,0,1,3.16,1.3l4.55,13.79a2.19,2.19,0,0,1-1.77,2.93Z"/>
    <path class="cls-1" d="M389.48,223.64a3.16,3.16,0,0,1-2.61-3l0-5.37a3.17,3.17,0,0,1,2.58-3l24.52-3.9a2.18,2.18,0,0,1,2.61,2.21l.08,14.52a2.19,2.19,0,0,1-2.58,2.24Z"/>
    <path class="cls-1" d="M314.54,169.7a3.18,3.18,0,0,0,3.68,1.54l5.11-1.66a3.15,3.15,0,0,0,2.07-3.4l-4-24.51a2.18,2.18,0,0,0-2.91-1.78l-13.82,4.47a2.19,2.19,0,0,0-1.32,3.15Z"/>
    <path class="cls-1" d="M300.65,178.75a3.18,3.18,0,0,0,4,.33l4.35-3.15a3.17,3.17,0,0,0,.93-3.88L298.58,150a2.2,2.2,0,0,0-3.33-.8l-11.76,8.51a2.19,2.19,0,0,0-.29,3.41Z"/>
    <path class="cls-1" d="M290.22,191.63a3.18,3.18,0,0,0,3.88-.91l3.17-4.34a3.14,3.14,0,0,0-.31-4l-17.58-17.54a2.19,2.19,0,0,0-3.41.27l-8.57,11.72a2.19,2.19,0,0,0,.78,3.33Z"/>
    <path class="cls-1" d="M284.27,207.1a3.17,3.17,0,0,0,3.41-2.07l1.68-5.1a3.16,3.16,0,0,0-1.52-3.68L265.72,185a2.2,2.2,0,0,0-3.17,1.3L258,200.07a2.2,2.2,0,0,0,1.77,2.93Z"/>
    <path class="cls-1" d="M283.36,223.64a3.17,3.17,0,0,0,2.62-3l0-5.37a3.19,3.19,0,0,0-2.58-3l-24.53-3.9a2.18,2.18,0,0,0-2.6,2.21l-.08,14.52a2.19,2.19,0,0,0,2.58,2.24Z"/>
    <path class="cls-1" d="M283.36,263.33a3.17,3.17,0,0,0,2.62-3l0-5.37a3.19,3.19,0,0,0-2.58-3L258.9,248a2.19,2.19,0,0,0-2.6,2.22l-.08,14.52A2.19,2.19,0,0,0,258.8,267Z"/>
    <path class="cls-1" d="M283.36,302a3.18,3.18,0,0,0,2.62-3l0-5.37a3.18,3.18,0,0,0-2.58-3l-24.53-3.91a2.18,2.18,0,0,0-2.6,2.21l-.08,14.52a2.18,2.18,0,0,0,2.58,2.24Z"/>
    <path class="cls-1" d="M258.86,243.79a3.15,3.15,0,0,1-2.61-3l0-5.37a3.16,3.16,0,0,1,2.58-3l24.52-3.91a2.2,2.2,0,0,1,2.61,2.22L286,245.2a2.2,2.2,0,0,1-2.59,2.24Z"/>
    <path class="cls-1" d="M258.86,283.18a3.17,3.17,0,0,1-2.61-3l0-5.37a3.17,3.17,0,0,1,2.58-3l24.52-3.9a2.19,2.19,0,0,1,2.61,2.21l.08,14.52a2.2,2.2,0,0,1-2.59,2.24Z"/>
    <path class="cls-1" d="M389.48,263.33a3.16,3.16,0,0,1-2.61-3l0-5.37a3.17,3.17,0,0,1,2.58-3L413.94,248a2.2,2.2,0,0,1,2.61,2.22l.08,14.52a2.19,2.19,0,0,1-2.58,2.24Z"/>
    <path class="cls-1" d="M389.48,302a3.17,3.17,0,0,1-2.61-3l0-5.37a3.16,3.16,0,0,1,2.58-3l24.52-3.91a2.19,2.19,0,0,1,2.61,2.21l.08,14.52a2.18,2.18,0,0,1-2.58,2.24Z"/>
    <path class="cls-1" d="M414,243.79a3.16,3.16,0,0,0,2.61-3l0-5.37a3.16,3.16,0,0,0-2.58-3l-24.52-3.91a2.2,2.2,0,0,0-2.61,2.22l-.08,14.52a2.19,2.19,0,0,0,2.58,2.24Z"/>
    <path class="cls-1" d="M414,283.18a3.18,3.18,0,0,0,2.61-3l0-5.37a3.17,3.17,0,0,0-2.58-3l-24.52-3.9a2.19,2.19,0,0,0-2.61,2.21l-.08,14.52a2.19,2.19,0,0,0,2.58,2.24Z"/>
    <path d="M303.34,262.49a.64.64,0,0,1-.61.52H297.6a.65.65,0,0,1-.61-.52l-1.32-8.12a.44.44,0,0,1,.45-.51h8.1a.44.44,0,0,1,.44.51Z"/>
    <path d="M321.65,262.49a.64.64,0,0,1-.61.52h-5.13a.65.65,0,0,1-.61-.52L314,254.37a.43.43,0,0,1,.44-.51h8.1a.43.43,0,0,1,.44.51Z"/>
    <path d="M339.78,262.49a.65.65,0,0,1-.61.52H334a.64.64,0,0,1-.61-.52l-1.32-8.12a.44.44,0,0,1,.44-.51h8.1a.44.44,0,0,1,.45.51Z"/>
    <path d="M358.09,262.49a.64.64,0,0,1-.61.52h-5.13a.64.64,0,0,1-.61-.52l-1.32-8.12a.44.44,0,0,1,.45-.51H359a.44.44,0,0,1,.45.51Z"/>
    <path d="M376.31,262.49a.65.65,0,0,1-.61.52h-5.13a.64.64,0,0,1-.61-.52l-1.32-8.12a.44.44,0,0,1,.44-.51h8.1a.44.44,0,0,1,.45.51Z"/>
</svg>